PathFileType	4	(X/Y/Z)	Walk10.trc
DataRate	CameraRate	NumFrames	NumMarkers	Units	OrigDataRate	OrigDataStartFrame	OrigNumFrames
200.000000	200.000000	8	59	mm	200.000000	342	536
Frame#	Times		C7		T10		RBack		LPSI		RPSI		RCAR		LElbowM		LLFC		LTH1		LBHD		RWRR		LUA1		CLAV		RUA1		RElbowM		RFA1		LFA1		RTH3		LCAR		LWRU		RTH4		RTH2		RACR1		LACR1		STRN		RTB4		LWRR		RTB3		RMT1		RWRU		RTB1		RToe		RCAL		RFHD		RLFC		RMT5		RBHD		LFHD		RTB2		LElbow		LTB3		LTH4		LTH3		RTH1		RMMAL		RLMAL		LTH2		RElbow		LTB2		LCAL		LMT1		LLMAL		RASI		LASI		LTB4		LMT5		LMMAL		LToe		LTB1
			X1	Y1	Z1	X2	Y2	Z2	X3	Y3	Z3	X4	Y4	Z4	X5	Y5	Z5	X6	Y6	Z6	X7	Y7	Z7	X8	Y8	Z8	X9	Y9	Z9	X10	Y10	Z10	X11	Y11	Z11	X12	Y12	Z12	X13	Y13	Z13	X14	Y14	Z14	X15	Y15	Z15	X16	Y16	Z16	X17	Y17	Z17	X18	Y18	Z18	X19	Y19	Z19	X20	Y20	Z20	X21	Y21	Z21	X22	Y22	Z22	X23	Y23	Z23	X24	Y24	Z24	X25	Y25	Z25	X26	Y26	Z26	X27	Y27	Z27	X28	Y28	Z28	X29	Y29	Z29	X30	Y30	Z30	X31	Y31	Z31	X32	Y32	Z32	X33	Y33	Z33	X34	Y34	Z34	X35	Y35	Z35	X36	Y36	Z36	X37	Y37	Z37	X38	Y38	Z38	X39	Y39	Z39	X40	Y40	Z40	X41	Y41	Z41	X42	Y42	Z42	X43	Y43	Z43	X44	Y44	Z44	X45	Y45	Z45	X46	Y46	Z46	X47	Y47	Z47	X48	Y48	Z48	X49	Y49	Z49	X50	Y50	Z50	X51	Y51	Z51	X52	Y52	Z52	X53	Y53	Z53	X54	Y54	Z54	X55	Y55	Z55	X56	Y56	Z56	X57	Y57	Z57	X58	Y58	Z58	X59	Y59	Z59

342	1.71	69.922	1320.6	17.53	57.376	1055.6	4.7929	51.275	1219.5	139.77	26.643	883.24	-22.996	31.59	874.34	75.454	146.22	702.48	322.72	121.95	937.21	-195.24	53.205	435.32	-128.11	157.61	710.86	-184.18	73.186	1450.1	-46.483	180.7	737.35	279.92	173.52	1094.4	-236.91	199.7	1250.5	20.117	136.16	1105.6	247.5	60.988	931.98	198.69	88.773	839.32	290.46	199.92	860.2	-284.89	278.4	534.49	165.47	315.26	723.82	-297.21	255.28	748.68	-295.84	242.87	620.76	189.01	306.67	656.17	162.46	148.01	1260.6	170.67	155.66	1265.7	-148.5	267.53	1148.1	14.204	400.01	246.96	70.045	310.21	764.63	-248.97	427.61	157.38	68.404	514.25	68.121	52.378	105.58	727.07	281.86	383.57	337.26	64.535	574.29	54.616	58.125	366.89	33.07	99.361	248.93	1498.9	43.826	332.55	452.72	147.51	502.35	48.679	105.13	75.96	1457.2	76.894	242.2	1489.3	-33.039	383.48	243.61	139.4	149.47	974.78	-258.24	-81.552	172.42	-27.663	138.84	621.4	-159.07	113.28	532.34	-137.05	212.37	701.31	213.77	414.35	74.157	38.982	420.83	68.016	118.12	201.4	619.18	-121.14	96.632	966.31	280.42	-55.773	260.03	-103.53	-230.48	110.97	-23.679	-89.455	51.649	-17.011	-176.48	115.07	-67.571	259.66	845.88	167.49	177.8	828.92	-163.32	-33.672	250.02	-36.76	-119.9	43.853	-72.011	-156.62	112.14	10.975	-49.437	23.062	-27.03	29.022	317.51	-44.773
343	1.715	76.311	1321.1	18.462	63.92	1056.1	5.7087	57.884	1219.8	140.79	33.283	883.19	-22.486	38.235	874.76	76.063	153.8	702.53	322.75	128.11	937.74	-194.05	61.625	435.13	-128.67	164.55	711.34	-183.87	79.305	1450.5	-45.666	188.09	737.43	279.94	179.71	1094.8	-235.94	206.12	1251	20.975	143.36	1105.9	248.2	68.194	932.29	199.3	96.253	839.48	290.89	205.37	860.49	-284.12	284.96	535.15	165.77	320.03	723.61	-297.04	260.14	748.68	-295.31	249.9	621.59	189.33	313.68	656.71	162.39	154.56	1261.1	171.59	162.02	1266.1	-147.64	274.08	1148.7	15.138	403.78	246.41	70.014	315.42	764.41	-248.77	430.17	156.45	68.294	515.57	65.488	52.096	112.98	727.22	282.18	388.54	336.93	64.595	575.47	50.664	57.666	367.52	33.362	99.407	255.04	1499.6	44.525	338.46	452.82	147.74	503.31	46.273	104.92	82.133	1457.6	77.705	248.28	1489.9	-32.324	387.31	243.21	139.37	155.46	975.18	-257.19	-76.718	174.13	-28.376	146.35	621.6	-159.05	121.31	532.38	-137.48	219.88	702.27	214.2	415.74	73.416	38.897	422.06	67.208	118.06	209.01	619.6	-121.39	104.15	966.46	280.98	-49.888	261.59	-104.08	-226.23	116.12	-23.68	-87.982	52.031	-17.038	-172.75	118.59	-67.872	266.38	846.46	167.98	181.88	829.56	-162.97	-27.592	250.94	-37.52	-118.45	45.023	-71.982	-152.6	115.21	10.529	-49.825	23.013	-26.732	36.216	317.41	-45.622
344	1.72	82.706	1321.6	19.391	70.412	1056.7	6.6188	64.507	1220.3	141.82	39.894	883.16	-22.049	44.836	875.28	76.615	161.48	702.7	322.77	134.26	938.4	-192.82	70.337	434.95	-129.25	171.55	711.89	-183.56	85.436	1451	-44.855	195.57	737.63	279.93	185.9	1095.3	-234.96	212.54	1251.7	21.825	150.63	1106.3	248.87	75.467	932.71	199.91	103.82	839.76	291.32	210.75	860.88	-283.35	291.32	535.87	166.11	324.7	723.47	-296.88	264.9	748.77	-294.8	256.8	622.51	189.7	320.59	657.27	162.38	161.13	1261.7	172.51	168.39	1266.6	-146.79	280.61	1149.5	16.065	407.35	245.94	70.011	320.52	764.27	-248.59	432.56	155.62	68.217	516.7	63.034	51.845	120.47	727.5	282.5	393.33	336.66	64.675	576.46	46.967	57.233	368.04	33.669	99.473	261.16	1500.4	45.212	344.22	452.97	148.01	504.12	44.046	104.73	88.322	1458.2	78.51	254.37	1490.6	-31.622	391	242.89	139.38	161.42	975.69	-256.12	-71.547	175.91	-29.145	154.02	621.86	-159.03	129.56	532.47	-137.93	227.34	703.35	214.66	416.96	72.773	38.846	423.15	66.491	118.03	216.75	620.14	-121.64	111.76	966.74	281.53	-43.704	263.23	-104.66	-221.57	121.44	-23.67	-86.354	52.482	-17.066	-168.69	122.25	-68.17	273.02	847.14	168.4	186.52	830.4	-162.55	-21.184	251.91	-38.342	-116.81	46.326	-71.962	-148.22	118.39	10.076	-50.167	22.989	-26.452	43.719	317.33	-46.552
345	1.725	89.1	1322.3	20.315	76.849	1057.4	7.5206	71.14	1220.9	142.86	46.471	883.17	-21.681	51.392	875.89	77.109	169.27	703.01	322.79	140.4	939.18	-191.56	79.339	434.79	-129.88	178.63	712.51	-183.26	91.575	1451.6	-44.054	203.13	737.94	279.89	192.1	1095.9	-233.99	218.96	1252.5	22.662	157.99	1106.8	249.53	82.803	933.26	200.51	111.47	840.17	291.75	216.07	861.37	-282.58	297.45	536.62	166.5	329.25	723.39	-296.73	269.55	748.95	-294.3	263.57	623.49	190.12	327.4	657.84	162.41	167.71	1262.4	173.41	174.75	1267.3	-145.95	287.13	1150.3	16.983	410.74	245.54	70.036	325.53	764.18	-248.41	434.78	154.86	68.173	517.67	60.773	51.625	128.05	727.91	282.82	397.94	336.44	64.779	577.28	43.549	56.826	368.45	33.983	99.557	267.3	1501.2	45.887	349.84	453.19	148.3	504.79	42.01	104.58	94.523	1458.9	79.306	260.48	1491.4	-30.933	394.54	242.64	139.44	167.36	976.31	-255.03	-66.032	177.76	-29.966	161.82	622.18	-159.01	138.01	532.62	-138.39	234.7	704.52	215.14	418.03	72.225	38.829	424.11	65.863	118.03	224.62	620.79	-121.89	119.44	967.13	282.08	-37.218	264.97	-105.28	-216.5	126.89	-23.646	-84.548	53.016	-17.102	-164.28	126.04	-68.463	279.59	847.91	168.74	191.86	831.44	-162.04	-14.443	252.92	-39.221	-114.97	47.777	-71.957	-143.47	121.67	9.6186	-50.43	22.999	-26.203	51.533	317.28	-47.558
346	1.73	95.49	1323	21.232	83.231	1058.2	8.411	77.778	1221.6	143.9	53.013	883.22	-21.377	57.902	876.58	77.548	177.16	703.45	322.81	146.53	940.08	-190.27	88.62	434.65	-130.53	185.77	713.2	-182.96	97.722	1452.3	-43.262	210.79	738.38	279.82	198.29	1096.6	-233.01	225.36	1253.3	23.484	165.41	1107.4	250.16	90.195	933.92	201.1	119.19	840.7	292.17	221.32	861.97	-281.8	303.38	537.41	166.93	333.7	723.39	-296.59	274.12	749.23	-293.81	270.18	624.54	190.57	334.08	658.42	162.5	174.31	1263.2	174.29	181.11	1268	-145.11	293.62	1151.2	17.888	413.95	245.2	70.09	330.45	764.17	-248.25	436.84	154.19	68.16	518.49	58.714	51.433	135.73	728.45	283.15	402.35	336.28	64.907	577.94	40.425	56.443	368.79	34.295	99.658	273.46	1502.2	46.548	355.33	453.46	148.62	505.34	40.174	104.47	100.73	1459.7	80.094	266.6	1492.3	-30.257	397.92	242.46	139.54	173.28	977.05	-253.94	-60.168	179.67	-30.833	169.74	622.58	-159	146.66	532.83	-138.88	241.95	705.78	215.64	418.96	71.768	38.843	424.96	65.32	118.06	232.61	621.56	-122.15	127.2	967.65	282.61	-30.424	266.78	-105.91	-211	132.48	-23.604	-82.539	53.648	-17.152	-159.53	129.97	-68.744	286.08	848.76	169.01	197.99	832.7	-161.44	-7.3661	253.97	-40.153	-112.9	49.388	-71.972	-138.35	125.03	9.1619	-50.579	23.054	-26.001	59.655	317.24	-48.637
347	1.735	101.87	1323.9	22.139	89.557	1059.1	9.2869	84.42	1222.5	144.95	59.516	883.31	-21.132	64.366	877.34	77.933	185.15	704.02	322.81	152.64	941.11	-188.96	98.172	434.52	-131.21	192.96	713.96	-182.66	103.87	1453.1	-42.482	218.54	738.95	279.72	204.48	1097.4	-232.04	231.74	1254.3	24.29	172.9	1108.1	250.76	97.637	934.7	201.7	126.99	841.35	292.59	226.51	862.67	-281.02	309.1	538.23	167.4	338.04	723.45	-296.46	278.59	749.59	-293.34	276.62	625.62	191.06	340.62	659	162.66	180.92	1264.2	175.16	187.47	1268.9	-144.28	300.08	1152.3	18.779	416.97	244.92	70.174	335.27	764.21	-248.08	438.74	153.59	68.177	519.18	56.859	51.268	143.5	729.12	283.48	406.56	336.15	65.063	578.46	37.603	56.085	369.06	34.599	99.774	279.62	1503.2	47.197	360.66	453.77	148.96	505.79	38.54	104.39	106.95	1460.5	80.87	272.72	1493.2	-29.595	401.16	242.34	139.69	179.18	977.89	-252.85	-53.953	181.64	-31.738	177.78	623.03	-158.99	155.5	533.09	-139.38	249.06	707.09	216.15	419.76	71.397	38.886	425.7	64.857	118.12	240.7	622.44	-122.4	135.01	968.29	283.13	-23.322	268.68	-106.57	-205.09	138.16	-23.543	-80.298	54.394	-17.226	-154.41	134.01	-69.01	292.5	849.68	169.21	204.99	834.16	-160.74	0.044846	255.06	-41.129	-110.57	51.169	-72.014	-132.85	128.46	8.7092	-50.571	23.163	-25.864	68.08	317.23	-49.78
348	1.74	108.23	1324.9	23.034	95.829	1060.1	10.145	91.059	1223.4	146	65.981	883.43	-20.939	70.784	878.18	78.268	193.25	704.73	322.82	158.72	942.24	-187.64	107.98	434.43	-131.91	200.19	714.77	-182.36	110.03	1454	-41.715	226.38	739.65	279.6	210.66	1098.3	-231.08	238.1	1255.3	25.077	180.44	1109	251.34	105.12	935.59	202.29	134.85	842.11	293	231.64	863.47	-280.25	314.62	539.06	167.91	342.29	723.57	-296.33	282.98	750.06	-292.88	282.89	626.73	191.59	347.02	659.59	162.88	187.53	1265.3	176	193.8	1269.9	-143.46	306.52	1153.3	19.652	419.82	244.68	70.287	340	764.32	-247.92	440.5	153.07	68.221	519.74	55.209	51.129	151.37	729.91	283.81	410.58	336.06	65.248	578.86	35.086	55.749	369.27	34.889	99.901	285.8	1504.3	47.832	365.85	454.12	149.31	506.14	37.106	104.34	113.17	1461.5	81.634	278.86	1494.2	-28.948	404.23	242.26	139.87	185.05	978.83	-251.77	-47.386	183.67	-32.673	185.93	623.56	-158.99	164.51	533.41	-139.88	256.01	708.44	216.68	420.45	71.104	38.955	426.36	64.467	118.2	248.89	623.43	-122.65	142.88	969.05	283.64	-15.912	270.65	-107.24	-198.75	143.91	-23.456	-77.796	55.267	-17.336	-148.92	138.15	-69.254	298.84	850.67	169.36	212.86	835.83	-159.94	7.787	256.18	-42.142	-107.97	53.131	-72.089	-126.97	131.94	8.2645	-50.359	23.34	-25.812	76.801	317.25	-50.98
349	1.745	114.57	1325.9	23.915	102.05	1061.1	10.984	97.694	1224.5	147.05	72.404	883.6	-20.791	77.156	879.08	78.558	201.45	705.56	322.81	164.78	943.48	-186.32	118.04	434.36	-132.62	207.46	715.64	-182.07	116.18	1454.9	-40.963	234.31	740.48	279.46	216.83	1099.3	-230.14	244.43	1256.4	25.842	188.03	1109.9	251.9	112.64	936.58	202.88	142.78	842.99	293.41	236.72	864.35	-279.48	319.96	539.9	168.44	346.46	723.76	-296.21	287.3	750.61	-292.44	288.99	627.84	192.14	353.26	660.18	163.17	194.14	1266.4	176.82	200.12	1270.9	-142.66	312.91	1154.5	20.506	422.5	244.48	70.429	344.65	764.5	-247.76	442.12	152.6	68.29	520.19	53.759	51.012	159.34	730.83	284.14	414.4	335.99	65.463	579.15	32.867	55.436	369.44	35.16	100.04	291.98	1505.4	48.454	370.89	454.5	149.68	506.41	35.867	104.33	119.39	1462.5	82.384	285	1495.3	-28.315	407.14	242.22	140.09	190.89	979.86	-250.69	-40.469	185.74	-33.627	194.17	624.14	-158.98	173.68	533.78	-140.39	262.77	709.8	217.22	421.03	70.883	39.047	426.93	64.142	118.3	257.17	624.52	-122.9	150.78	969.92	284.15	-8.1937	272.69	-107.92	-192	149.72	-23.34	-74.997	56.28	-17.491	-143.06	142.38	-69.472	305.11	851.71	169.45	221.6	837.68	-159.04	15.855	257.35	-43.182	-105.07	55.282	-72.202	-120.7	135.47	7.8313	-49.889	23.596	-25.864	85.809	317.3	-52.226
